<svg xmlns="http://www.w3.org/2000/svg" width="64" height="64" viewBox="0 0 64 64">
    <g fill="none" fill-rule="evenodd">
        <g>
            <g>
                <path d="M0 0H64V64H0z" transform="translate(-88.000000, -64.000000) translate(88.000000, 64.000000)"/>
                <g fill="#8000FF">
                    <path d="M35 34.625c0 1.864-1.342 3.374-3 3.374s-3-1.51-3-3.374v-11.25c0-1.864 1.342-3.374 3-3.374s3 1.51 3 3.374v11.25zm-3 12.374c-1.658 0-3-1.342-3-3 0-1.656 1.342-2.998 3-2.998s3 1.342 3 2.998c0 1.658-1.342 3-3 3zm24.998-2.934l-19.48-31.02c-2.552-4.06-8.484-4.06-11.036 0l-19.48 31.02c-2.714 4.322.402 9.936 5.518 9.936h38.96c5.116 0 8.232-5.614 5.518-9.936z" transform="translate(-88.000000, -64.000000) translate(88.000000, 64.000000) translate(-0.000000, 0.000000)"/>
                </g>
            </g>
        </g>
    </g>
</svg>
