<svg xmlns="http://www.w3.org/2000/svg" width="90" height="90" viewBox="0 0 90 90">
    <g fill="none" fill-rule="evenodd">
        <g>
            <g>
                <g>
                    <path fill="#000" d="M9 39H67V84H9z" transform="translate(-75.000000, -46.000000) translate(75.000000, 46.000000) translate(7.000000, 0.000000)"/>
                    <path fill="#873EFF" d="M65.412 30.647c5.847 0 10.588 4.74 10.588 10.588v38c0 5.848-4.74 10.589-10.588 10.589H10.588C4.741 89.824 0 85.083 0 79.235v-38c0-5.847 4.74-10.588 10.588-10.588h54.824zm-17.06 48.294H27.648c-1.462 0-2.647 1.185-2.647 2.647 0 1.462 1.185 2.647 2.647 2.647h20.706c1.462 0 2.647-1.185 2.647-2.647 0-1.462-1.185-2.647-2.647-2.647zm14.413-39.47h-49.53c-2.372 0-4.307 1.872-4.407 4.22l-.004.191v20.883h10.588c1.496 0 3.088.235 4.067 1.528l6.371 6.825h16.3l6.371-6.825c.979-1.293 2.571-1.528 4.067-1.528h10.588V43.882c0-2.436-1.975-4.411-4.411-4.411z" transform="translate(-75.000000, -46.000000) translate(75.000000, 46.000000) translate(7.000000, 0.000000)"/>
                    <path fill="#af8ed8" d="M71.7 11.3c1.722 1.724 1.722 4.517 0 6.24l-7.984 7.983c-1.722 1.723-4.516 1.723-6.239 0-1.723-1.723-1.723-4.517 0-6.24l7.983-7.982c1.723-1.723 4.516-1.723 6.24 0zm-69.164 0c1.723-1.722 4.516-1.722 6.24 0l7.982 7.984c1.723 1.722 1.723 4.516 0 6.239-1.723 1.723-4.516 1.723-6.24 0L2.537 17.54c-1.723-1.723-1.723-4.516 0-6.24zM37.118 0c2.436 0 4.411 1.975 4.411 4.412v11.117c0 2.437-1.975 4.412-4.411 4.412-2.437 0-4.412-1.975-4.412-4.412V4.412C32.706 1.975 34.68 0 37.118 0z" transform="translate(-75.000000, -46.000000) translate(75.000000, 46.000000) translate(7.000000, 0.000000)"/>
                </g>
            </g>
        </g>
    </g>
</svg>
