<?xml version="1.0" encoding="UTF-8"?> <svg xmlns="http://www.w3.org/2000/svg" xmlns:xlink="http://www.w3.org/1999/xlink" width="99px" height="27px" viewBox="0 0 99 27"><!-- Generator: Sketch 61 (89581) - https://sketch.com --><title>Group 3</title><desc>Created with Sketch.</desc><g id="06-Symbols" stroke="none" stroke-width="1" fill="none" fill-rule="evenodd"><g id="Atom/Logo/Brand/Color/Negative" transform="translate(-1.000000, -17.000000)" fill-rule="nonzero"><g id="Group-3" transform="translate(1.000000, 17.000000)"><g id="Group-2"><path d="M46.6695078,8.05926229 C45.0101822,8.05926229 43.665033,9.41109045 43.665033,11.078655 L43.665033,23.1704841 C43.665033,24.8380486 45.0101823,26.1898766 46.6695078,26.1898766 C48.3288333,26.1898766 49.6739825,24.8380486 49.6739825,23.1704841 L49.6739825,11.0778163 C49.6739825,9.41025173 48.3288334,8.05842357 46.6695078,8.05842357" id="Path" fill="#FFFFFF"></path><path d="M3.00447475,0 C2.20749463,0 1.44316888,0.31539396 0.879696708,0.876775669 C0.316224539,1.43815738 -0.000220167028,2.19952423 -7.88702437e-13,2.99332815 L-7.88702437e-13,22.7944544 C-7.88702437e-13,24.4471671 1.34514923,25.7869554 3.00447475,25.7869554 C4.66380027,25.7869554 6.0089495,24.4471671 6.0089495,22.7944544 L6.0089495,2.99332815 C6.00916967,2.19952423 5.69272496,1.43815738 5.12925279,0.876775669 C4.56578062,0.31539396 3.80145487,0 3.00447475,0" id="Path" fill="#FFFFFF"></path><path d="M12.8580578,9.30076779 C11.9445208,7.98305056 10.1462324,7.66274968 8.84146815,8.58535576 C7.53670393,9.50796184 7.21955157,11.3241027 8.13308854,12.6418199 L16.3857314,24.5448313 C16.9766862,25.3972449 17.9730379,25.8665071 18.9994706,25.7758513 C20.0259033,25.6851955 20.9264774,25.0483946 21.3619553,24.1053252 C21.7974331,23.1622559 21.7016554,22.0561928 21.1107006,21.2037792 L12.8580578,9.30076779 Z" id="Path" fill="#FFFFFF"></path><path d="M16.8250586,8.05842357 L16.8250586,8.05842357 C19.0374927,8.05842357 20.8310249,6.25448401 20.8310249,4.02921179 C20.8310249,1.80393956 19.0374927,-8.8817842e-16 16.8250586,-8.8817842e-16 C14.6126245,-8.8817842e-16 12.8190923,1.80393956 12.8190923,4.02921179 C12.8190923,5.09782519 13.2411482,6.12267098 13.9924126,6.87829476 C14.7436771,7.63391855 15.7626103,8.05842357 16.8250586,8.05842357" id="Path" fill="#FFFFFF"></path><path d="M32.0480513,8.05842361 C28.3733011,8.0586708 25.0843384,10.4040848 23.7951691,13.9436913 C22.5059997,17.4832978 23.4872016,21.4741846 26.2572656,23.9578879 C29.0273297,26.4415913 33.0048596,26.8968177 36.2379461,25.1001722 C36.8840778,26.0227918 38.035084,26.4112943 39.0870408,26.0618357 C40.1389976,25.712377 40.8516484,24.70477 40.8510709,23.5676982 L40.8510709,17.5283917 C40.8567792,17.3941849 40.8608566,17.2583005 40.8608566,17.1224161 C40.8608566,14.7183505 39.9323413,12.4127614 38.2795962,10.712909 C36.6268512,9.01305657 34.3852776,8.05820117 32.0480513,8.05842361 M32.0480513,20.9288583 C30.5513273,20.9302141 29.2012466,20.00387 28.6275605,18.581922 C28.0538745,17.159974 28.3696077,15.5225668 29.4274849,14.4334765 C30.4853622,13.3443862 32.0769661,13.0181796 33.4598857,13.6070174 C34.8428053,14.1958551 35.7445856,15.5837274 35.7445856,17.1232549 C35.7423385,19.2240726 34.0871989,20.9265454 32.0447894,20.9288583" id="Shape" fill="#FFFFFF"></path><path d="M65.2974386,0 C60.1126755,0 55.4384376,3.14134908 53.4543147,7.95924108 C51.4701918,12.7771331 52.5669229,18.3227667 56.233104,22.0102216 C59.8992851,25.6976765 65.4129246,26.8007716 70.2030211,24.8051353 C74.9931176,22.8094991 78.1163435,18.108138 78.1163435,12.8932893 C78.1163435,9.4737091 76.7660723,6.19412305 74.3620141,3.77611471 C71.9579558,1.35810637 68.6972904,0 65.2974386,0 M65.2974386,20.2018025 C62.3579926,20.202137 59.7078139,18.4213961 58.582783,15.6900077 C57.4577521,12.9586194 58.0794481,9.8145412 60.1579503,7.72397807 C62.2364525,5.63341494 65.3623917,5.00811137 68.0780221,6.13967052 C70.7936524,7.27122967 72.5641199,9.93678656 72.5637873,12.8932893 C72.5592554,16.9277801 69.3086535,20.1972443 65.2974386,20.2018025" id="Shape" fill="#AF8ED8"></path><path d="M91.0082798,9.76231202 L87.5014431,9.76231202 C86.380298,9.76049032 85.4720113,8.85059597 85.4706478,7.72792216 C85.4706478,6.50365097 86.6032702,5.77454416 87.7226842,5.68609243 C89.0996624,5.57614775 92.8739697,5.65467966 94.2129738,5.6935323 C95.7606377,5.73236521 97.0484831,4.51109747 97.0939372,2.96150599 C97.1393912,1.41191451 95.9253509,0.117058991 94.3780791,0.0648607973 C93.8555208,0.0491544148 89.210283,-0.0773232969 87.2785509,0.0723006627 C83.0402977,0.402961347 79.8488121,3.69716841 79.8488121,7.72792216 C79.8524495,11.9592739 83.2758533,15.3891927 87.5014431,15.3951168 L91.0082798,15.3951168 C92.2639056,15.3951168 93.3238817,16.4805105 93.3238817,17.7651272 C93.3238817,19.2398739 92.0542219,19.9970868 90.7952939,20.0921518 C89.178913,20.2153229 84.3314212,20.1293511 82.6011176,20.0847119 C81.5968733,20.0594608 80.6554604,20.572616 80.1315,21.4308769 C79.6075395,22.2891377 79.5806336,23.362114 80.0609175,24.245626 C80.5412013,25.1291379 81.4557083,25.688959 82.4599525,25.7142101 C82.8850987,25.7241299 85.4483586,25.7869554 87.8151431,25.7869554 C89.1533216,25.7869554 90.4295857,25.7662891 91.2212656,25.7042903 C95.698096,25.3628831 98.9473684,22.0232102 98.9473684,17.7626473 C98.9473684,13.3508071 95.3852214,9.76148536 91.0082798,9.76148536" id="Path" fill="#AF8ED8"></path></g></g></g></g></svg> 