<svg xmlns="http://www.w3.org/2000/svg" xmlns:xlink="http://www.w3.org/1999/xlink" width="96" height="96" viewBox="0 0 96 96">
    <defs>
        <path id="x2tlivf6aa" d="M0 0H96V96H0z"/>
    </defs>
    <g fill="none" fill-rule="evenodd">
        <g>
            <g transform="translate(-72.000000, -77.000000) translate(72.000000, 77.000000)">
                <g>
                    <mask id="bcpuwdjcmb" fill="#fff">
                        <use xlink:href="#x2tlivf6aa"/>
                    </mask>
                    <path fill="#B2B2C2" d="M15 88.8h-.6l-.001-1.8H12v-.6h2.399V71.399L3.6 71.4v-.6l10.799-.001V55.8H0v-.6h14.399v-15H0v-.6h14.399v-15H3.6V24h10.799V9.6H12.6V9h1.799l.001-1.8h.6L14.999 9h15L30 .6h.6V9h14.999L45.6-.6h.6L46.199 9H61.2V-.6h.6V9h15V5.4h.6L77.399 9H82.2v.6h-4.801V24h14.4l.001-1.8h.6l-.001 1.8H93.6v.6h-1.201v15H96.6v.6h-4.201v15H96.6v.6h-4.201v14.999l1.201.001v.6l-1.201-.001.001 3.001h-.6l-.001-3.001h-14.4V86.4H82.2v.6h-4.801l.001 3h-.6l-.001-3h-15l.001 9h-.6l-.001-9h-15l.001 9h-.6l-.001-9h-15l.001 7.2H30l-.001-7.2h-15L15 88.8zm-.001-2.4h15V71.399h-15V86.4zm30.6-15.001h-15V86.4h15V71.399zm15.6 0h-15V86.4h15V71.399zm15.6 0h-15V86.4h15V71.399zm-61.8-.6h15V55.8h-15v14.999zm30.6-14.999h-15v14.999h15V55.8zm15.6 0h-15v14.999h15V55.8zm15.6 0h-15v14.999h15V55.8zm15 0h-14.4v14.999h14.4V55.8zm-76.8-.6h15v-15h-15v15zm30.6-15H30.6l-.001 15h15v-15zm15.601 0H46.199v15h15l.001-15zm15.6 0h-15l-.001 15h15l.001-15zm14.999 0h-14.4v15h14.4v-15zm-76.8-.6h15v-15h-15v15zm30.6-15H30.6v15h14.999v-15zm15.601 0H46.199v15H61.2v-15zm15.6 0h-15v15h15v-15zm14.999 0h-14.4v15h14.4v-15zm-76.8-.6h15V9.6h-15V24zm30.6-14.4H30.6V24h14.999V9.6zm15.601 0H46.199V24H61.2V9.6zm15.6 0h-15V24h15V9.6z" mask="url(#bcpuwdjcmb)"/>
                </g>
                <rect width="8.4" height="34.8" x="62.4" y="52.2" fill="#8000FF" rx="4.2" transform="translate(66.600000, 69.600000) rotate(-45.000000) translate(-66.600000, -69.600000)"/>
                <circle cx="48" cy="50.4" r="19.8" fill="#FFF"/>
                <path fill="#8000FF" fill-rule="nonzero" d="M48 27c-12.923 0-23.4 10.477-23.4 23.4 0 12.923 10.477 23.4 23.4 23.4 12.923 0 23.4-10.477 23.4-23.4C71.4 37.477 60.923 27 48 27zm0 7.2c8.947 0 16.2 7.253 16.2 16.2S56.947 66.6 48 66.6s-16.2-7.253-16.2-16.2S39.053 34.2 48 34.2z"/>
                <path fill="#000" d="M48.715 25.085c1.172 1.171 1.172 3.07 0 4.242l-6.788 6.788c-1.171 1.172-3.07 1.172-4.242 0-1.172-1.171-1.172-3.07 0-4.242l6.788-6.788c1.171-1.172 3.07-1.172 4.242 0zm-47.03 0c1.171-1.172 3.07-1.172 4.242 0l6.788 6.788c1.172 1.171 1.172 3.07 0 4.242-1.171 1.172-3.07 1.172-4.242 0l-6.788-6.788c-1.172-1.171-1.172-3.07 0-4.242zM25.2 17.4c1.657 0 3 1.343 3 3V30c0 1.657-1.343 3-3 3s-3-1.343-3-3v-9.6c0-1.657 1.343-3 3-3z" transform="translate(25.200000, 27.197056) rotate(-45.000000) translate(-25.200000, -27.197056)"/>
            </g>
        </g>
    </g>
</svg>
